<svg id="Layer_1" data-name="Layer 1" xmlns="http://www.w3.org/2000/svg" xmlns:xlink="http://www.w3.org/1999/xlink" viewBox="0 0 860.81 1068.86"><defs><linearGradient id="linear-gradient" x1="66.98" y1="779.81" x2="839.65" y2="298.83" gradientUnits="userSpaceOnUse"><stop offset="0.01" stop-color="#fbc926"/><stop offset="0.25" stop-color="#fffbcc"/><stop offset="0.3" stop-color="#f8f0bb"/><stop offset="0.41" stop-color="#e7d28e"/><stop offset="0.55" stop-color="#cca246"/><stop offset="0.6" stop-color="#c3922e"/><stop offset="0.87" stop-color="#eed688"/><stop offset="0.98" stop-color="#fffbcc"/></linearGradient></defs><path d="M452.22,5.57l-375,267.22V807.21l375.05,267.22,375-267.22V272.79ZM803.08,790,452.22,1040,101.36,790V290L452.22,40,803.08,290Z" transform="translate(-21.81 -5.57)" style="fill:url(#linear-gradient)"/><path d="M879.63,337.18q0,19.44-38.88,32.94t-95,13.49q-56.51,0-140.36-15.47-44.28,23-81,68.2t-78.82,128q-42.1,82.8-61.73,110.32T330,728.06Q239.67,795,142.51,795q-51.84,0-84.77-22T24.81,716.18q0-17.62,10.44-30.23t24.83-12.6q23.4,0,23.4,24.48a29.12,29.12,0,0,1-7.2,19.79,22.5,22.5,0,0,1-17.64,8.28q-16.92,0-16.91-16.56,0-8.64-2.88-8.64-6.12,0-6.12,17.64,0,29.16,30.05,49.31t74,20.16q96.45,0,173.12-87.11,36-40.66,92.86-134.25,92.85-151.88,194-199.75-19.44-3.24-58.31-11.88Q447,335,398.41,335q-5,0-30.23,1.44,16.9,31.68,16.92,72.35Q385.1,488,325,557.46t-128.5,69.46q-28.43,0-46.25-18.9t-17.81-48.76q0-41,31.13-90.88t80.62-87.11a299.78,299.78,0,0,1,108.52-52q-28.41-38.52-80.93-38.52-44.23,0-89.37,25.78t-79.31,70.14q-5,6.84-6.83,6.84a2.82,2.82,0,0,1-2.88-2.16q0-6.12,29.49-35.69Q193.73,285,271.06,285q60.06,0,91.36,42.12,43.54-12.6,100.06-12.6a362.15,362.15,0,0,1,53.26,3.6q25.56,4,125.26,24.47,83.14-36.34,159.8-36.35Q879.63,306.23,879.63,337.18Zm-508.57,54a109.79,109.79,0,0,0-13.32-53.27q-80.62,13.32-150.09,83.15T138.19,558.54q0,25.9,16,43.55t39.42,17.63q60.81,0,119.13-75T371.06,391.17ZM873.87,337.9q0-10.42-20.34-17.63t-51.29-7.2q-77,0-149.36,32.39,9,1.44,47.87,8.64Q758.32,365.26,803,365.26q29.16,0,50-8.1T873.87,337.9Z" transform="translate(-21.81 -5.57)" style="fill:#5e4f35;stroke:#5e4f35;stroke-miterlimit:10;stroke-width:6px"/></svg>